<svg xmlns="http://www.w3.org/2000/svg" version="1.1" xmlns:xlink="http://www.w3.org/1999/xlink" xmlns:svgjs="http://svgjs.dev/svgjs" width="2000" height="404" viewBox="0 0 2000 404"><g transform="matrix(1,0,0,1,-1.2121212121212466,0.849999022460878)"><svg viewBox="0 0 396 80" data-background-color="#ffffff" preserveAspectRatio="xMidYMid meet" height="404" width="2000" xmlns="http://www.w3.org/2000/svg" xmlns:xlink="http://www.w3.org/1999/xlink"><g id="tight-bounds" transform="matrix(1,0,0,1,0.2400000000000091,-0.16831663811106523)"><svg viewBox="0 0 395.52 80.33663327622213" height="80.33663327622213" width="395.52"><g><svg viewBox="0 0 518.9279412354817 105.40282087333092" height="80.33663327622213" width="395.52"><g transform="matrix(1,0,0,1,123.40794123548177,14.56724948394082)"><svg viewBox="0 0 395.52 76.26832190544928" height="76.26832190544928" width="395.52"><g id="textblocktransform"><svg viewBox="0 0 395.52 76.26832190544928" height="76.26832190544928" width="395.52" id="textblock"><g><svg viewBox="0 0 395.52 76.26832190544928" height="76.26832190544928" width="395.52"><g transform="matrix(1,0,0,1,0,0)"><svg width="395.52" viewBox="3.98 -38.57 202.94 39.13" height="76.26832190544928" data-palette-color="#001f3f"><path d="M13.67-15.33L13.67 0 3.98 0 3.98-35.16 13.67-35.16 13.67-19.8 26.51-19.8 26.51-35.16 36.21-35.16 36.21 0 26.51 0 26.51-15.33 13.67-15.33ZM72.87-14.16L72.87-14.16Q72.87-11.96 72.29-10.03 71.7-8.11 70.66-6.47 69.63-4.83 68.16-3.53 66.7-2.22 64.95-1.32 63.21-0.42 61.22 0.07 59.23 0.56 57.13 0.56L57.13 0.56Q55.03 0.56 53.05 0.07 51.07-0.42 49.33-1.32 47.58-2.22 46.12-3.53 44.65-4.83 43.61-6.47 42.58-8.11 41.99-10.05 41.4-11.99 41.4-14.16L41.4-14.16Q41.4-16.33 41.99-18.27 42.58-20.21 43.61-21.85 44.65-23.49 46.12-24.79 47.58-26.1 49.33-27 51.07-27.91 53.05-28.39 55.03-28.88 57.13-28.88L57.13-28.88Q59.23-28.88 61.22-28.39 63.21-27.91 64.95-27 66.7-26.1 68.16-24.79 69.63-23.49 70.66-21.85 71.7-20.21 72.29-18.27 72.87-16.33 72.87-14.16ZM64.48-14.16L64.48-14.16Q64.48-15.33 64.34-16.64 64.21-17.94 63.89-19.2 63.57-20.46 63.02-21.62 62.47-22.78 61.67-23.65 60.86-24.51 59.74-25.04 58.62-25.56 57.13-25.56L57.13-25.56Q55.71-25.56 54.61-25.02 53.51-24.49 52.7-23.6 51.88-22.71 51.33-21.53 50.78-20.36 50.44-19.1 50.1-17.85 49.95-16.56 49.8-15.28 49.8-14.16L49.8-14.16Q49.8-13.04 49.95-11.76 50.1-10.47 50.44-9.2 50.78-7.93 51.33-6.77 51.88-5.62 52.7-4.72 53.51-3.83 54.61-3.3 55.71-2.76 57.13-2.76L57.13-2.76Q58.59-2.76 59.71-3.28 60.84-3.81 61.66-4.69 62.47-5.57 63.01-6.71 63.55-7.86 63.88-9.13 64.21-10.4 64.34-11.69 64.48-12.99 64.48-14.16ZM102.34-9.01L102.34-9.01Q102.34-7.15 101.8-5.71 101.26-4.27 100.34-3.21 99.41-2.15 98.14-1.43 96.87-0.71 95.42-0.27 93.96 0.17 92.38 0.37 90.79 0.56 89.23 0.56L89.23 0.56Q87.13 0.56 85.52 0.29 83.91 0.02 82.44-0.57 80.98-1.17 79.52-2.12 78.07-3.08 76.29-4.44L76.29-4.44 81.1-8.37Q81.76-7.13 82.84-6.12 83.93-5.1 85.1-4.37 86.27-3.64 87.37-3.25 88.47-2.86 89.16-2.86L89.16-2.86Q89.72-2.86 90.42-2.89 91.13-2.93 91.87-3.04 92.6-3.15 93.31-3.37 94.01-3.59 94.56-3.97 95.11-4.35 95.44-4.92 95.77-5.49 95.77-6.3L95.77-6.3Q95.77-7.13 95.34-7.75 94.92-8.37 94.23-8.84 93.55-9.3 92.67-9.62 91.79-9.94 90.9-10.18 90.01-10.42 89.18-10.61 88.35-10.79 87.74-10.96L87.74-10.96Q86.62-11.28 85.37-11.61 84.13-11.94 82.91-12.37 81.68-12.79 80.57-13.38 79.46-13.96 78.62-14.78 77.78-15.6 77.28-16.71 76.78-17.82 76.78-19.31L76.78-19.31Q76.78-22.05 77.86-23.89 78.95-25.73 80.73-26.84 82.51-27.95 84.79-28.42 87.06-28.88 89.4-28.88L89.4-28.88Q91.01-28.88 92.79-28.55 94.58-28.22 96.26-27.58 97.94-26.93 99.41-26 100.87-25.07 101.85-23.88L101.85-23.88 97.04-19.92Q96.5-21.39 95.64-22.44 94.77-23.49 93.76-24.16 92.74-24.83 91.68-25.15 90.62-25.46 89.72-25.46L89.72-25.46Q88.84-25.46 87.74-25.39 86.64-25.32 85.68-24.98 84.71-24.63 84.04-23.94 83.37-23.24 83.37-22.02L83.37-22.02Q83.37-21.14 83.77-20.52 84.17-19.9 84.83-19.45 85.49-18.99 86.34-18.69 87.18-18.38 88.06-18.15 88.94-17.92 89.77-17.75 90.6-17.58 91.25-17.38L91.25-17.38Q92.38-17.07 93.64-16.74 94.89-16.41 96.11-15.98 97.33-15.55 98.47-14.98 99.6-14.4 100.46-13.57 101.31-12.74 101.83-11.63 102.34-10.52 102.34-9.01ZM118.16-24.93L118.16 0 109.88 0 109.88-24.93 104.75-24.93 104.75-28.2 109.88-28.2 109.88-38.57 118.16-38.57 118.16-28.2 126.7-28.2 126.7-24.93 118.16-24.93ZM146.11 0L138.08-26.22 135.34 0 129.36 0 135.34-35.16 144.2-35.16 152.43-8.33 160.76-35.16 169.62-35.16 174.6 0 164.74 0 161.83-25.54 154.97 0 146.11 0ZM186.58-13.38L186.58-13.38Q188.1-13.04 189.61-12.84 191.13-12.65 192.66-12.65L192.66-12.65Q194.27-12.65 195.65-12.95 197.03-13.26 198.05-13.98 199.06-14.7 199.65-15.89 200.23-17.09 200.23-18.87L200.23-18.87Q200.23-20.31 199.84-21.51 199.45-22.71 198.68-23.56 197.91-24.41 196.79-24.89 195.67-25.37 194.18-25.37L194.18-25.37Q192.79-25.37 191.67-24.85 190.56-24.34 189.72-23.47 188.88-22.61 188.28-21.46 187.68-20.31 187.29-19.07 186.9-17.82 186.73-16.55 186.56-15.28 186.56-14.16L186.56-14.16Q186.56-13.96 186.56-13.77 186.56-13.57 186.58-13.38ZM206.92-18.95L206.92-18.95Q206.92-17.21 206.36-15.86 205.8-14.5 204.83-13.48 203.87-12.45 202.6-11.74 201.33-11.04 199.89-10.58 198.45-10.13 196.92-9.94 195.4-9.74 193.96-9.74L193.96-9.74Q192.13-9.74 190.34-10 188.56-10.25 186.83-10.82L186.83-10.82Q187.1-9.2 187.68-7.75 188.27-6.3 189.25-5.21 190.22-4.13 191.65-3.49 193.08-2.86 195.03-2.86L195.03-2.86Q196.33-2.86 197.5-3.25 198.67-3.64 199.65-4.35 200.62-5.05 201.37-6.03 202.11-7.01 202.58-8.2L202.58-8.2 206.14-6.88Q205.33-4.96 203.93-3.55 202.53-2.15 200.76-1.23 198.99-0.32 197 0.12 195.01 0.56 193.05 0.56L193.05 0.56Q189.83 0.56 187.1-0.52 184.36-1.61 182.38-3.56 180.41-5.52 179.28-8.23 178.16-10.94 178.16-14.16L178.16-14.16Q178.16-17.38 179.28-20.09 180.41-22.8 182.38-24.76 184.36-26.71 187.1-27.8 189.83-28.88 193.05-28.88L193.05-28.88Q194.62-28.88 196.25-28.66 197.89-28.44 199.43-27.97 200.96-27.49 202.33-26.73 203.7-25.98 204.71-24.87 205.72-23.75 206.32-22.29 206.92-20.83 206.92-18.95Z" opacity="1" transform="matrix(1,0,0,1,0,0)" fill="#001f3f" class="wordmark-text-0" data-fill-palette-color="primary" id="text-0"></path></svg></g></svg></g></svg></g></svg></g><g><svg viewBox="0 0 105.40282087333092 105.40282087333092" height="105.40282087333092" width="105.40282087333092"><g><svg xmlns="http://www.w3.org/2000/svg" xmlns:xlink="http://www.w3.org/1999/xlink" version="1.1" x="0" y="0" viewBox="0 0 100 100" style="enable-background:new 0 0 100 100;" xml:space="preserve" height="105.40282087333092" width="105.40282087333092" class="icon-icon-0" data-fill-palette-color="accent" id="icon-0"><path d="M50 0L0 50H12.5V100H87.5V50H100zM75 87.5H56.25V68.75H43.75V87.5H25V42.676L50 25 75 42.676z" fill="#001f3f" data-fill-palette-color="accent"></path></svg></g></svg></g></svg></g><defs></defs></svg><rect width="395.52" height="80.33663327622213" fill="none" stroke="none" visibility="hidden"></rect></g></svg></g></svg>